<svg width="14" height="15" viewBox="0 0 14 15" fill="none" xmlns="http://www.w3.org/2000/svg">
    <path d="M10.3916 4.13009L7.32905 0.630094C7.24593 0.535594 7.12605 0.480469 7.00005 0.480469C6.87405 0.480469 6.75418 0.535594 6.67105 0.630094L3.60855 4.13009C3.49568 4.25959 3.46768 4.44247 3.53943 4.59909C3.6103 4.75484 3.76605 4.85547 3.93755 4.85547H5.68755V10.543C5.68755 10.7845 5.88355 10.9805 6.12505 10.9805H7.87505C8.11655 10.9805 8.31255 10.7845 8.31255 10.543V4.85547H10.0626C10.2341 4.85547 10.3898 4.75572 10.4607 4.59909C10.5316 4.44247 10.5053 4.25872 10.3916 4.13009Z" fill="#1E1E1E"/>
    <path d="M11.8125 10.1055V12.7305H2.1875V10.1055H0.4375V13.6055C0.4375 14.0893 0.8295 14.4805 1.3125 14.4805H12.6875C13.1714 14.4805 13.5625 14.0893 13.5625 13.6055V10.1055H11.8125Z" fill="#1E1E1E"/>
</svg>
