<svg width="10" height="12" viewBox="0 0 10 12" fill="none" xmlns="http://www.w3.org/2000/svg">
<path d="M10 6.00013C10 6.53181 9.60828 6.96268 9.12467 6.96268H5.87495V10.5374C5.87495 11.0693 5.4831 11.5001 4.99982 11.5C4.75813 11.5 4.53937 11.3924 4.38115 11.2183C4.22274 11.0439 4.12481 10.8034 4.12492 10.5377L4.12479 6.96254H0.874676C0.633141 6.96254 0.414554 6.85496 0.256013 6.68057C0.0978636 6.50661 3.26625e-08 6.26598 3.26625e-08 6.00013C-0.000130597 5.46855 0.391585 5.03758 0.875133 5.03758H4.12492V1.46276C4.12492 0.931019 4.51686 0.5 5.00019 0.5C5.48334 0.500144 5.87493 0.930732 5.87519 1.46241V5.03758H9.1253C9.60855 5.03787 9.99976 5.46855 10 6.00013Z" fill="white"/>
</svg>
