<svg width="14" height="14" viewBox="0 0 14 14" fill="none" xmlns="http://www.w3.org/2000/svg">
<path fill-rule="evenodd" clip-rule="evenodd" d="M7.05039 0.300293C5.24381 0.300293 5.01882 0.308051 4.30837 0.341301C1.89221 0.452135 0.551124 1.79211 0.440291 4.20828C0.408149 4.91872 0.400391 5.14482 0.400391 6.95029C0.400391 8.75688 0.408149 8.98298 0.440291 9.69231C0.551124 12.1074 1.89221 13.4496 4.30837 13.5604C5.01882 13.5925 5.24381 13.6003 7.05039 13.6003C8.85697 13.6003 9.08307 13.5925 9.79352 13.5604C12.2052 13.4496 13.5519 12.1096 13.6605 9.69231C13.6926 8.98298 13.7004 8.75688 13.7004 6.95029C13.7004 5.14482 13.6926 4.91872 13.6605 4.20828C13.5519 1.79543 12.2097 0.451026 9.79352 0.341301C9.08307 0.308051 8.85697 0.300293 7.05039 0.300293ZM7.05003 1.49942C8.82558 1.49942 9.03616 1.50607 9.73774 1.53821C11.541 1.62023 12.3811 2.47475 12.4642 4.2636C12.4953 4.96518 12.5019 5.17465 12.5019 6.9502C12.5019 8.72575 12.4953 8.93633 12.4642 9.6368C12.3811 11.4245 11.5421 12.2813 9.73774 12.3633C9.03616 12.3943 8.82669 12.4021 7.05003 12.4021C5.27448 12.4021 5.0639 12.3954 4.36343 12.3633C2.55685 12.2802 1.72006 11.4223 1.63693 9.6368C1.6059 8.93633 1.59814 8.72575 1.59814 6.9502C1.59814 5.17465 1.6059 4.96407 1.63693 4.2636C1.71895 2.47364 2.55907 1.61912 4.36343 1.5371C5.0639 1.50496 5.27448 1.49942 7.05003 1.49942ZM3.63604 6.95037C3.63604 5.06398 5.16554 3.53559 7.05081 3.53559C8.93609 3.53559 10.4656 5.06509 10.4656 6.95037C10.4656 8.83675 8.93609 10.3651 7.05081 10.3651C5.16554 10.3651 3.63604 8.83675 3.63604 6.95037ZM7.05038 9.16689C5.82567 9.16689 4.83372 8.17493 4.83372 6.95022C4.83372 5.72662 5.82567 4.73356 7.05038 4.73356C8.27398 4.73356 9.26816 5.72552 9.26816 6.95022C9.26816 8.17493 8.27398 9.16689 7.05038 9.16689ZM9.80145 3.40142C9.80145 2.96031 10.1594 2.60342 10.5994 2.60342C11.0417 2.60342 11.3986 2.96031 11.3986 3.40142C11.3986 3.84254 11.0406 4.19942 10.5994 4.19942C10.1583 4.19942 9.80145 3.84143 9.80145 3.40142Z" fill="white"/>
</svg>
