<svg width="12" height="12" viewBox="0 0 12 12" fill="none" xmlns="http://www.w3.org/2000/svg">
<path d="M12 6.00014C12 6.58015 11.5299 7.0502 10.9496 7.0502H7.04994V10.9499C7.04994 11.5301 6.57972 12.0002 5.99978 12C5.70975 12 5.44724 11.8826 5.25738 11.6927C5.06729 11.5025 4.94977 11.2401 4.94991 10.9502L4.94975 7.05004H1.04961C0.75977 7.05004 0.497465 6.93269 0.307215 6.74244C0.117436 6.55267 3.9195e-08 6.29016 3.9195e-08 6.00014C-0.000156717 5.42024 0.469902 4.95009 1.05016 4.95009H4.94991V1.05029C4.94991 0.470203 5.42023 0 6.00022 0C6.58001 0.000156752 7.04991 0.46989 7.05022 1.0499V4.95009H10.9504C11.5303 4.9504 11.9997 5.42024 12 6.00014Z" fill="white"/>
</svg>
