<svg width="64" height="64" viewBox="0 0 64 64" fill="none" xmlns="http://www.w3.org/2000/svg">
<path d="M32.0003 0C14.3277 0 0.000976562 14.3271 0.000976562 31.9991C0.000976562 49.6712 14.3277 64 32.0001 64C49.6726 64 64.0003 49.6718 64.0003 31.9991C64.0003 14.3265 49.6728 0 32.0003 0ZM32.0976 47.096H31.9022H18.2336C18.2336 37.1 27.0124 37.1023 28.961 34.489L29.3029 32.6641C28.728 32.3631 28.1964 31.9631 27.7121 31.4912C24.0845 31.0003 19.9409 30.2257 19.9409 30.2257C28.7406 26.0798 19.091 13.3268 31.9602 12.8172V12.8116C31.9735 12.8122 31.9862 12.8137 31.9995 12.8144C32.0127 12.8137 32.0255 12.8122 32.0387 12.8116V12.8172C44.9079 13.3268 35.2577 26.0798 44.058 30.2257C44.058 30.2257 39.9155 31.0003 36.2879 31.4912C35.8244 31.9439 35.3151 32.3283 34.7679 32.6244L35.1415 34.6195C37.2795 37.1055 45.766 37.2681 45.766 47.096H32.0976Z" fill="#F7C6FF"/>
</svg>
