<?xml version="1.0" encoding="utf-8"?>
<!-- Generator: Adobe Illustrator 21.0.2, SVG Export Plug-In . SVG Version: 6.00 Build 0)  -->
<svg version="1.1" id="Слой_1" xmlns="http://www.w3.org/2000/svg" xmlns:xlink="http://www.w3.org/1999/xlink" x="0px" y="0px"
	 viewBox="0 0 196.1 29.9" style="enable-background:new 0 0 196.1 29.9;" xml:space="preserve">
<style type="text/css">
	.st0{fill:#FFFFFF;}
	.st1{fill:#EE94FD;}
</style>
<path class="st0" d="M57.9,23.9l-1.4-4.1h-7.3l-1.4,4.1h-5l7.1-19.6h6l7.1,19.6H57.9z M50.7,15.3h4.2l-2.1-6.1L50.7,15.3z M65,23.9
	V2.4h4.8v21.6H65z M80.4,8.1c2.5,0,4.5,0.9,6,2.6c1.5,1.7,2.1,3.9,1.9,6.4H77.1c0.1,1.1,0.5,2,1.1,2.5c0.6,0.6,1.4,0.8,2.3,0.8
	c0.7,0,1.2-0.1,1.7-0.4c0.5-0.3,0.8-0.7,1-1.3h4.9c-0.5,1.8-1.5,3.2-2.9,4.1c-1.4,0.9-3,1.3-4.8,1.3c-2.4,0-4.4-0.8-5.9-2.3
	c-1.5-1.5-2.3-3.5-2.3-5.8c0-2.3,0.8-4.2,2.3-5.7C76.1,8.9,78,8.1,80.4,8.1z M80.4,11.8c-1.6,0-2.7,0.8-3.1,2.5h6.1
	c-0.2-0.8-0.5-1.4-1-1.8C81.9,12,81.2,11.8,80.4,11.8z M105.2,23.9h-5.7l-2.7-4.2l-2.5,4.2h-5.7l5.3-8L89,8.5h5.7l2.4,3.9l2.2-3.9
	h5.7l-5.1,7.6L105.2,23.9z M116.8,8.5h4.8l0,15.4h-4.8v-1.7c-1.1,1.3-2.5,2-4.3,2c-2,0-3.6-0.8-5-2.3c-1.3-1.5-2-3.4-2-5.8
	s0.7-4.3,2-5.8c1.3-1.5,3-2.3,4.9-2.3c1.8,0,3.3,0.7,4.4,2.1V8.5z M111.2,18.8c0.6,0.6,1.4,1,2.3,1s1.7-0.3,2.3-1
	c0.6-0.7,0.9-1.5,0.9-2.6c0-1-0.3-1.9-0.9-2.5c-0.6-0.7-1.4-1-2.3-1s-1.7,0.3-2.3,1c-0.6,0.7-0.9,1.5-0.9,2.5
	C110.3,17.3,110.6,18.1,111.2,18.8z M133.6,8.1c1.7,0,3.1,0.6,4.1,1.7c1,1.1,1.5,2.6,1.5,4.5v9.6h-4.8v-8.6c0-0.9-0.2-1.6-0.5-2
	c-0.4-0.4-1-0.7-1.9-0.7c-1.9,0-2.8,1-2.8,3.1v8.2h-4.8V8.5h4.8v1.7C130.3,8.8,131.7,8.1,133.6,8.1z M153.1,2.4h4.8v21.6h-4.8v-1.7
	c-1.1,1.3-2.6,2-4.4,2c-2,0-3.6-0.8-5-2.3c-1.3-1.5-2-3.4-2-5.8s0.7-4.3,2-5.8c1.3-1.5,3-2.3,4.9-2.3c1.8,0,3.3,0.7,4.4,2.1V2.4z
	 M147.6,18.8c0.6,0.6,1.4,1,2.3,1c0.9,0,1.7-0.3,2.3-1c0.6-0.7,0.9-1.5,0.9-2.6c0-1-0.3-1.9-0.9-2.5c-0.6-0.7-1.4-1-2.3-1
	c-0.9,0-1.7,0.3-2.3,1c-0.6,0.7-0.9,1.5-0.9,2.5C146.6,17.3,146.9,18.1,147.6,18.8z M169.9,8.1c0.4,0,0.6,0,0.9,0.1v4.9
	c-0.4,0-0.7-0.1-1-0.1c-0.6,0-1.2,0.1-1.7,0.2c-0.5,0.1-0.9,0.3-1.4,0.6c-0.4,0.3-0.8,0.7-1,1.3c-0.2,0.6-0.3,1.3-0.3,2.1v6.7h-4.8
	V8.5h4.8v2.4C166.4,9.1,167.9,8.1,169.9,8.1z M175.1,1.2c0.8,0,1.5,0.3,2.1,0.8c0.5,0.5,0.8,1.1,0.8,1.9c0,0.8-0.3,1.5-0.8,2
	c-0.5,0.5-1.2,0.8-2.1,0.8c-0.8,0-1.5-0.3-2.1-0.8c-0.5-0.5-0.8-1.2-0.8-2s0.3-1.4,0.8-1.9C173.6,1.5,174.3,1.2,175.1,1.2z
	 M172.7,23.9V8.5h4.8v15.4H172.7z M191.3,8.5h4.8l0,15.4h-4.8v-1.7c-1.1,1.3-2.5,2-4.3,2c-2,0-3.6-0.8-5-2.3c-1.3-1.5-2-3.4-2-5.8
	s0.7-4.3,2-5.8c1.3-1.5,3-2.3,4.9-2.3c1.8,0,3.3,0.7,4.4,2.1V8.5z M185.7,18.8c0.6,0.6,1.4,1,2.3,1c0.9,0,1.7-0.3,2.3-1
	c0.6-0.7,0.9-1.5,0.9-2.6c0-1-0.3-1.9-0.9-2.5c-0.6-0.7-1.4-1-2.3-1c-0.9,0-1.7,0.3-2.3,1c-0.6,0.7-0.9,1.5-0.9,2.5
	C184.8,17.3,185.1,18.1,185.7,18.8z"/>
<path class="st1" d="M10.3,19.4L2.6,6.6C0.9,9,0,11.9,0,15c0,1.5,0.2,3,0.7,4.4H10.3z"/>
<path class="st1" d="M13.5,8.6h15.1c-1.9-4.1-5.7-7.2-10.2-8.2L13.5,8.6z"/>
<path class="st1" d="M8.7,13.2L16.4,0c-0.5,0-1-0.1-1.5-0.1c-4.5,0-8.5,2-11.3,5.1L8.7,13.2z"/>
<path class="st1" d="M11.8,29.5l4.8-8.3H1.3c2,4.3,6,7.6,10.9,8.5L11.8,29.5z"/>
<path class="st1" d="M19.7,10.4l7.6,13.2C29,21.1,30,18.1,30,15c0-1.6-0.3-3.1-0.7-4.6H19.7z"/>
<path class="st1" d="M21.2,16.7l-7.6,13.2c0.4,0,0.9,0,1.3,0c4.4,0,8.3-1.9,11.1-4.9L21.2,16.7z"/>
</svg>
