<svg width="303" height="33" viewBox="0 0 303 33" fill="none" xmlns="http://www.w3.org/2000/svg">
<path d="M58.3482 27L56.9482 22.94H49.6122L48.2122 27H43.1722L50.2842 7.4H56.2762L63.3882 27H58.3482ZM51.1802 18.404H55.3802L53.2802 12.3L51.1802 18.404ZM65.5011 27V5.44H70.2611V27H65.5011ZM80.8879 11.236C83.4079 11.236 85.4239 12.1133 86.9359 13.868C88.4479 15.604 89.0826 17.7507 88.8399 20.308H77.6119C77.7239 21.428 78.0879 22.2773 78.7039 22.856C79.3386 23.416 80.1039 23.696 80.9999 23.696C81.6533 23.696 82.2226 23.5467 82.7079 23.248C83.1933 22.9307 83.5293 22.5013 83.7159 21.96H88.6159C88.112 23.7707 87.16 25.124 85.7599 26.02C84.3786 26.916 82.7919 27.364 80.9999 27.364C78.5733 27.364 76.5946 26.5987 75.0639 25.068C73.5333 23.5373 72.7679 21.6147 72.7679 19.3C72.7679 17.004 73.5239 15.0907 75.0359 13.56C76.5666 12.0107 78.5173 11.236 80.8879 11.236ZM80.8599 14.904C79.2359 14.904 78.1999 15.744 77.7519 17.424H83.8839C83.7159 16.6587 83.3706 16.052 82.8479 15.604C82.3439 15.1373 81.6813 14.904 80.8599 14.904ZM105.68 27H100.024L97.3644 22.772L94.9004 27H89.1884L94.5364 19.048L89.4684 11.6H95.1244L97.5324 15.492L99.7444 11.6H105.456L100.36 19.188L105.68 27ZM117.275 11.6H122.035L122.007 27H117.247V25.348C116.146 26.692 114.699 27.364 112.907 27.364C110.929 27.364 109.277 26.608 107.951 25.096C106.626 23.584 105.963 21.652 105.963 19.3C105.963 16.948 106.626 15.016 107.951 13.504C109.295 11.992 110.938 11.236 112.879 11.236C114.727 11.236 116.193 11.936 117.275 13.336V11.6ZM111.703 21.876C112.319 22.5107 113.094 22.828 114.027 22.828C114.961 22.828 115.735 22.5107 116.351 21.876C116.967 21.2227 117.275 20.364 117.275 19.3C117.275 18.2547 116.967 17.4053 116.351 16.752C115.735 16.0987 114.961 15.772 114.027 15.772C113.094 15.772 112.319 16.0987 111.703 16.752C111.087 17.4053 110.779 18.2547 110.779 19.3C110.779 20.364 111.087 21.2227 111.703 21.876ZM134.049 11.236C135.785 11.236 137.148 11.7867 138.137 12.888C139.126 13.9893 139.621 15.4827 139.621 17.368V27H134.861V18.432C134.861 17.536 134.684 16.8733 134.329 16.444C133.974 15.996 133.34 15.772 132.425 15.772C130.54 15.772 129.597 16.7893 129.597 18.824V27H124.837V11.6H129.597V13.336C130.736 11.936 132.22 11.236 134.049 11.236ZM153.594 5.44H158.354V27H153.594V25.348C152.474 26.692 151.018 27.364 149.226 27.364C147.248 27.364 145.596 26.608 144.27 25.096C142.945 23.584 142.282 21.652 142.282 19.3C142.282 16.948 142.945 15.016 144.27 13.504C145.614 11.992 147.257 11.236 149.198 11.236C151.046 11.236 152.512 11.936 153.594 13.336V5.44ZM148.022 21.876C148.638 22.5107 149.413 22.828 150.346 22.828C151.28 22.828 152.054 22.5107 152.67 21.876C153.286 21.2227 153.594 20.364 153.594 19.3C153.594 18.2547 153.286 17.4053 152.67 16.752C152.054 16.0987 151.28 15.772 150.346 15.772C149.413 15.772 148.638 16.0987 148.022 16.752C147.406 17.4053 147.098 18.2547 147.098 19.3C147.098 20.364 147.406 21.2227 148.022 21.876ZM170.39 11.236C170.744 11.236 171.034 11.264 171.258 11.32V16.22C170.847 16.1827 170.53 16.164 170.306 16.164C169.69 16.164 169.139 16.22 168.654 16.332C168.187 16.444 167.73 16.6493 167.282 16.948C166.834 17.228 166.488 17.6573 166.246 18.236C166.022 18.796 165.91 19.496 165.91 20.336V27H161.15V11.6H165.91V13.98C166.843 12.1507 168.336 11.236 170.39 11.236ZM175.588 4.32C176.428 4.32 177.119 4.58133 177.66 5.104C178.201 5.608 178.472 6.252 178.472 7.036C178.472 7.83867 178.201 8.50133 177.66 9.024C177.119 9.528 176.428 9.78 175.588 9.78C174.767 9.78 174.076 9.51867 173.516 8.996C172.975 8.47333 172.704 7.82 172.704 7.036C172.704 6.252 172.975 5.608 173.516 5.104C174.076 4.58133 174.767 4.32 175.588 4.32ZM173.208 27V11.6H177.968V27H173.208ZM191.787 11.6H196.547L196.519 27H191.759V25.348C190.658 26.692 189.211 27.364 187.419 27.364C185.44 27.364 183.788 26.608 182.463 25.096C181.138 23.584 180.475 21.652 180.475 19.3C180.475 16.948 181.138 15.016 182.463 13.504C183.807 11.992 185.45 11.236 187.391 11.236C189.239 11.236 190.704 11.936 191.787 13.336V11.6ZM186.215 21.876C186.831 22.5107 187.606 22.828 188.539 22.828C189.472 22.828 190.247 22.5107 190.863 21.876C191.479 21.2227 191.787 20.364 191.787 19.3C191.787 18.2547 191.479 17.4053 190.863 16.752C190.247 16.0987 189.472 15.772 188.539 15.772C187.606 15.772 186.831 16.0987 186.215 16.752C185.599 17.4053 185.291 18.2547 185.291 19.3C185.291 20.364 185.599 21.2227 186.215 21.876ZM215.443 14.652C218.393 15.2867 220.474 16.0427 221.687 16.92C222.919 17.7787 223.535 19.16 223.535 21.064C223.535 21.9787 223.367 22.8093 223.031 23.556C222.714 24.284 222.294 24.8813 221.771 25.348C221.267 25.8147 220.67 26.2067 219.979 26.524C219.307 26.8413 218.635 27.056 217.963 27.168C217.31 27.2987 216.647 27.364 215.975 27.364C214.538 27.364 213.269 27.168 212.167 26.776C211.066 26.384 210.189 25.852 209.535 25.18C208.882 24.508 208.378 23.7893 208.023 23.024C207.669 22.2587 207.435 21.428 207.323 20.532H212.139C212.382 21.372 212.774 21.9787 213.315 22.352C213.875 22.7253 214.753 22.912 215.947 22.912C217.814 22.912 218.747 22.3613 218.747 21.26C218.747 20.7933 218.523 20.4667 218.075 20.28C217.646 20.0747 216.75 19.832 215.387 19.552C215.238 19.5333 215.117 19.5147 215.023 19.496C214.949 19.4773 214.837 19.4493 214.687 19.412C214.557 19.3747 214.426 19.3467 214.295 19.328C213.362 19.1413 212.559 18.9267 211.887 18.684C211.234 18.4413 210.571 18.1053 209.899 17.676C209.227 17.228 208.714 16.6493 208.359 15.94C208.005 15.2307 207.827 14.3907 207.827 13.42C207.827 12.0573 208.201 10.8813 208.947 9.892C209.713 8.884 210.655 8.156 211.775 7.708C212.895 7.26 214.099 7.036 215.387 7.036C217.963 7.036 219.886 7.64267 221.155 8.856C222.443 10.0693 223.181 11.628 223.367 13.532H218.551C218.383 12.8787 218.066 12.3747 217.599 12.02C217.151 11.6653 216.414 11.488 215.387 11.488C214.417 11.488 213.707 11.656 213.259 11.992C212.83 12.3093 212.615 12.7107 212.615 13.196C212.615 13.588 212.783 13.868 213.119 14.036C213.474 14.204 214.099 14.3813 214.995 14.568C215.089 14.5867 215.163 14.6053 215.219 14.624C215.294 14.624 215.369 14.6333 215.443 14.652ZM237.603 22.184L238.415 26.02C237.93 26.356 237.23 26.664 236.315 26.944C235.4 27.224 234.495 27.364 233.599 27.364C231.938 27.364 230.538 26.8507 229.399 25.824C228.279 24.7787 227.719 23.1827 227.719 21.036V16.08H225.087V11.6H227.719V8.436L232.479 7.4V11.6H237.659V16.08H232.479V20.756C232.479 22.212 233.132 22.94 234.439 22.94C234.962 22.94 236.016 22.688 237.603 22.184ZM250.574 11.6H255.334V27H250.574V25.236C249.435 26.6547 247.961 27.364 246.15 27.364C244.451 27.364 243.107 26.8133 242.118 25.712C241.147 24.6107 240.662 23.1173 240.662 21.232V11.6H245.422V20.168C245.422 21.064 245.59 21.736 245.926 22.184C246.281 22.6133 246.906 22.828 247.802 22.828C249.65 22.828 250.574 21.8107 250.574 19.776V11.6ZM269.45 5.44H274.21V27H269.45V25.348C268.33 26.692 266.874 27.364 265.082 27.364C263.103 27.364 261.451 26.608 260.126 25.096C258.8 23.584 258.138 21.652 258.138 19.3C258.138 16.948 258.8 15.016 260.126 13.504C261.47 11.992 263.112 11.236 265.054 11.236C266.902 11.236 268.367 11.936 269.45 13.336V5.44ZM263.878 21.876C264.494 22.5107 265.268 22.828 266.202 22.828C267.135 22.828 267.91 22.5107 268.526 21.876C269.142 21.2227 269.45 20.364 269.45 19.3C269.45 18.2547 269.142 17.4053 268.526 16.752C267.91 16.0987 267.135 15.772 266.202 15.772C265.268 15.772 264.494 16.0987 263.878 16.752C263.262 17.4053 262.954 18.2547 262.954 19.3C262.954 20.364 263.262 21.2227 263.878 21.876ZM279.385 4.32C280.225 4.32 280.916 4.58133 281.457 5.104C281.998 5.608 282.269 6.252 282.269 7.036C282.269 7.83867 281.998 8.50133 281.457 9.024C280.916 9.528 280.225 9.78 279.385 9.78C278.564 9.78 277.873 9.51867 277.313 8.996C276.772 8.47333 276.501 7.82 276.501 7.036C276.501 6.252 276.772 5.608 277.313 5.104C277.873 4.58133 278.564 4.32 279.385 4.32ZM277.005 27V11.6H281.765V27H277.005ZM286.624 13.56C288.192 12.0107 290.096 11.236 292.336 11.236C294.576 11.236 296.48 12.0107 298.048 13.56C299.616 15.0907 300.4 17.004 300.4 19.3C300.4 21.6147 299.625 23.5373 298.076 25.068C296.527 26.5987 294.613 27.364 292.336 27.364C290.077 27.364 288.164 26.5987 286.596 25.068C285.047 23.5187 284.272 21.596 284.272 19.3C284.272 17.004 285.056 15.0907 286.624 13.56ZM294.66 16.752C294.044 16.0987 293.269 15.772 292.336 15.772C291.403 15.772 290.628 16.0987 290.012 16.752C289.396 17.4053 289.088 18.2547 289.088 19.3C289.088 20.364 289.396 21.2227 290.012 21.876C290.628 22.5107 291.403 22.828 292.336 22.828C293.269 22.828 294.044 22.5107 294.66 21.876C295.276 21.2227 295.584 20.364 295.584 19.3C295.584 18.2547 295.276 17.4053 294.66 16.752Z" fill="white"/>
<path d="M10.269 22.4767L2.55604 9.6709C0.941701 12.0888 0 14.9544 0 18.0439C0 19.5663 0.224213 21.0886 0.67264 22.4767H10.269Z" fill="#EE94FD"/>
<path d="M13.4976 11.6859H28.5647C26.6365 7.5666 22.8697 4.4771 18.3406 3.44727L13.4976 11.6859Z" fill="#EE94FD"/>
<path d="M8.65478 16.2983L16.4126 3.08956C15.9193 3.04478 15.426 3 14.9328 3C10.4485 3 6.41265 4.97011 3.67725 8.10439L8.65478 16.2983Z" fill="#EE94FD"/>
<path d="M11.7935 32.551L16.5468 24.2676H1.30029C3.31821 28.6108 7.3092 31.8346 12.1522 32.7749L11.7935 32.551Z" fill="#EE94FD"/>
<path d="M19.686 13.4775L27.2644 26.6415C28.9685 24.2236 29.9998 21.2237 29.9998 18.0446C29.9998 16.4775 29.7308 14.9104 29.2824 13.4775H19.686Z" fill="#EE94FD"/>
<path d="M21.2102 19.791L13.6318 32.955C14.0803 32.9998 14.4838 32.9998 14.9323 32.9998C19.3268 32.9998 23.273 31.1192 26.0084 28.1192L21.2102 19.791Z" fill="#EE94FD"/>
</svg>
