<svg width="270" height="26" viewBox="0 0 270 26" fill="none" xmlns="http://www.w3.org/2000/svg">
<path d="M47.5434 21.0259L46.2615 17.3778H39.5443L38.2623 21.0259H33.6475L40.1596 3.41448H45.6461L52.1582 21.0259H47.5434ZM40.98 13.302H44.8257L42.9029 7.81734L40.98 13.302ZM54.0929 21.0259V1.65334H58.4514V21.0259H54.0929ZM68.1819 6.86129C70.4893 6.86129 72.3352 7.64958 73.7197 9.22625C75.1042 10.7861 75.6853 12.715 75.4631 15.0129H65.1822C65.2847 16.0192 65.618 16.7824 66.1821 17.3023C66.7632 17.8055 67.464 18.0571 68.2844 18.0571C68.8827 18.0571 69.404 17.923 69.8483 17.6546C70.2928 17.3695 70.6004 16.9836 70.7713 16.4972H75.258C74.7966 18.1242 73.9249 19.3402 72.6429 20.1453C71.3781 20.9504 69.9253 21.353 68.2844 21.353C66.0625 21.353 64.2507 20.6653 62.8491 19.2899C61.4476 17.9145 60.7468 16.187 60.7468 14.1071C60.7468 12.0441 61.439 10.3249 62.8235 8.9495C64.225 7.55739 66.0112 6.86129 68.1819 6.86129ZM68.1562 10.1571C66.6692 10.1571 65.7206 10.9119 65.3104 12.4215H70.9251C70.7713 11.7338 70.4551 11.1887 69.9765 10.7861C69.515 10.3668 68.9083 10.1571 68.1562 10.1571ZM90.8827 21.0259H85.7038L83.2686 17.2269L81.0124 21.0259H75.7822L80.6791 13.8807L76.0386 7.18836H81.2175L83.4224 10.6855L85.4478 7.18836H90.6776L86.0115 14.0065L90.8827 21.0259ZM101.5 7.18836H105.858L105.833 21.0259H101.474V19.5415C100.466 20.7491 99.141 21.353 97.5002 21.353C95.689 21.353 94.1763 20.6737 92.9622 19.3151C91.7489 17.9565 91.1419 16.2205 91.1419 14.1071C91.1419 11.9938 91.7489 10.2578 92.9622 8.89918C94.1928 7.54058 95.6972 6.86129 97.4745 6.86129C99.1666 6.86129 100.509 7.49027 101.5 8.74823V7.18836ZM96.3977 16.4218C96.9618 16.9921 97.6714 17.2772 98.5257 17.2772C99.3809 17.2772 100.09 16.9921 100.654 16.4218C101.218 15.8348 101.5 15.0632 101.5 14.1071C101.5 13.1679 101.218 12.4047 100.654 11.8176C100.09 11.2306 99.3809 10.9371 98.5257 10.9371C97.6714 10.9371 96.9618 11.2306 96.3977 11.8176C95.8337 12.4047 95.5516 13.1679 95.5516 14.1071C95.5516 15.0632 95.8337 15.8348 96.3977 16.4218ZM116.859 6.86129C118.448 6.86129 119.696 7.35611 120.602 8.34568C121.508 9.33524 121.961 10.6771 121.961 12.3711V21.0259H117.602V13.3272C117.602 12.5221 117.44 11.9266 117.115 11.5409C116.79 11.1383 116.21 10.9371 115.372 10.9371C113.646 10.9371 112.782 11.8512 112.782 13.6794V21.0259H108.424V7.18836H112.782V8.74823C113.825 7.49027 115.184 6.86129 116.859 6.86129ZM134.755 1.65334H139.114V21.0259H134.755V19.5415C133.73 20.7491 132.396 21.353 130.756 21.353C128.945 21.353 127.432 20.6737 126.218 19.3151C125.004 17.9565 124.397 16.2205 124.397 14.1071C124.397 11.9938 125.004 10.2578 126.218 8.89918C127.448 7.54058 128.953 6.86129 130.73 6.86129C132.422 6.86129 133.764 7.49027 134.755 8.74823V1.65334ZM129.653 16.4218C130.217 16.9921 130.927 17.2772 131.781 17.2772C132.636 17.2772 133.345 16.9921 133.909 16.4218C134.473 15.8348 134.755 15.0632 134.755 14.1071C134.755 13.1679 134.473 12.4047 133.909 11.8176C133.345 11.2306 132.636 10.9371 131.781 10.9371C130.927 10.9371 130.217 11.2306 129.653 11.8176C129.089 12.4047 128.807 13.1679 128.807 14.1071C128.807 15.0632 129.089 15.8348 129.653 16.4218ZM150.134 6.86129C150.459 6.86129 150.724 6.88645 150.929 6.93676V11.3396C150.553 11.3061 150.263 11.2893 150.058 11.2893C149.494 11.2893 148.989 11.3396 148.545 11.4403C148.117 11.5409 147.699 11.7254 147.289 11.9938C146.878 12.2453 146.562 12.6311 146.34 13.1511C146.135 13.6543 146.032 14.2832 146.032 15.038V21.0259H141.674V7.18836H146.032V9.32689C146.887 7.68318 148.254 6.86129 150.134 6.86129ZM154.894 0.646973C155.663 0.646973 156.296 0.881789 156.791 1.35143C157.287 1.80429 157.535 2.38295 157.535 3.08741C157.535 3.80864 157.287 4.40407 156.791 4.87371C156.296 5.32658 155.663 5.55301 154.894 5.55301C154.142 5.55301 153.51 5.31819 152.997 4.84855C152.501 4.37891 152.253 3.79187 152.253 3.08741C152.253 2.38295 152.501 1.80429 152.997 1.35143C153.51 0.881789 154.142 0.646973 154.894 0.646973ZM152.715 21.0259V7.18836H157.073V21.0259H152.715ZM169.727 7.18836H174.085L174.06 21.0259H169.701V19.5415C168.693 20.7491 167.368 21.353 165.727 21.353C163.915 21.353 162.402 20.6737 161.189 19.3151C159.976 17.9565 159.369 16.2205 159.369 14.1071C159.369 11.9938 159.976 10.2578 161.189 8.89918C162.42 7.54058 163.924 6.86129 165.701 6.86129C167.394 6.86129 168.735 7.49027 169.727 8.74823V7.18836ZM164.625 16.4218C165.189 16.9921 165.898 17.2772 166.753 17.2772C167.607 17.2772 168.317 16.9921 168.881 16.4218C169.445 15.8348 169.727 15.0632 169.727 14.1071C169.727 13.1679 169.445 12.4047 168.881 11.8176C168.317 11.2306 167.607 10.9371 166.753 10.9371C165.898 10.9371 165.189 11.2306 164.625 11.8176C164.061 12.4047 163.779 13.1679 163.779 14.1071C163.779 15.0632 164.061 15.8348 164.625 16.4218ZM191.387 9.93071C194.088 10.501 195.994 11.1803 197.105 11.9686C198.233 12.7402 198.797 13.9813 198.797 15.6922C198.797 16.5141 198.643 17.2604 198.335 17.9313C198.045 18.5855 197.66 19.1222 197.182 19.5415C196.72 19.9609 196.173 20.3131 195.541 20.5982C194.925 20.8833 194.31 21.0762 193.695 21.1769C193.097 21.2943 192.49 21.353 191.874 21.353C190.559 21.353 189.397 21.1769 188.388 20.8246C187.379 20.4724 186.576 19.9944 185.978 19.3906C185.38 18.7867 184.918 18.141 184.593 17.4533C184.269 16.7656 184.055 16.0192 183.952 15.2141H188.362C188.584 15.9689 188.943 16.5141 189.439 16.8495C189.952 17.1849 190.755 17.3527 191.849 17.3527C193.558 17.3527 194.413 16.8578 194.413 15.8683C194.413 15.4489 194.207 15.1555 193.797 14.9877C193.404 14.8032 192.584 14.5852 191.336 14.3336C191.2 14.3168 191.089 14.3 191.003 14.2832C190.935 14.2664 190.832 14.2413 190.695 14.2078C190.576 14.1742 190.456 14.1491 190.336 14.1323C189.482 13.9645 188.747 13.7717 188.131 13.5536C187.533 13.3355 186.926 13.0336 186.311 12.6479C185.696 12.2453 185.226 11.7254 184.901 11.088C184.577 10.4507 184.414 9.69592 184.414 8.8237C184.414 7.59926 184.756 6.54257 185.439 5.65365C186.141 4.74792 187.003 4.09378 188.029 3.69123C189.054 3.28869 190.157 3.08741 191.336 3.08741C193.695 3.08741 195.456 3.63253 196.617 4.72276C197.797 5.81296 198.473 7.21352 198.643 8.92434H194.233C194.079 8.33732 193.789 7.88446 193.361 7.56574C192.951 7.24703 192.276 7.08772 191.336 7.08772C190.448 7.08772 189.798 7.23867 189.387 7.54058C188.995 7.82569 188.798 8.18637 188.798 8.62243C188.798 8.97466 188.952 9.22625 189.259 9.3772C189.584 9.52816 190.157 9.68747 190.977 9.85523C191.063 9.87203 191.131 9.88874 191.182 9.90555C191.251 9.90555 191.32 9.9139 191.387 9.93071ZM211.678 16.6985L212.422 20.1453C211.977 20.4472 211.337 20.724 210.499 20.9756C209.661 21.2272 208.832 21.353 208.012 21.353C206.491 21.353 205.209 20.8917 204.166 19.9692C203.141 19.03 202.628 17.5959 202.628 15.667V11.2138H200.218V7.18836H202.628V4.34537L206.986 3.41448V7.18836H211.729V11.2138H206.986V15.4154C206.986 16.7237 207.584 17.3778 208.781 17.3778C209.26 17.3778 210.225 17.1514 211.678 16.6985ZM223.555 7.18836H227.913V21.0259H223.555V19.4409C222.512 20.7156 221.162 21.353 219.504 21.353C217.948 21.353 216.718 20.8581 215.812 19.8686C214.923 18.879 214.479 17.5371 214.479 15.8431V7.18836H218.838V14.8871C218.838 15.6922 218.991 16.296 219.299 16.6985C219.624 17.0843 220.196 17.2772 221.017 17.2772C222.709 17.2772 223.555 16.3631 223.555 14.5348V7.18836ZM240.839 1.65334H245.197V21.0259H240.839V19.5415C239.813 20.7491 238.48 21.353 236.839 21.353C235.027 21.353 233.515 20.6737 232.301 19.3151C231.087 17.9565 230.481 16.2205 230.481 14.1071C230.481 11.9938 231.087 10.2578 232.301 8.89918C233.532 7.54058 235.035 6.86129 236.814 6.86129C238.506 6.86129 239.847 7.49027 240.839 8.74823V1.65334ZM235.737 16.4218C236.301 16.9921 237.01 17.2772 237.865 17.2772C238.719 17.2772 239.429 16.9921 239.993 16.4218C240.557 15.8348 240.839 15.0632 240.839 14.1071C240.839 13.1679 240.557 12.4047 239.993 11.8176C239.429 11.2306 238.719 10.9371 237.865 10.9371C237.01 10.9371 236.301 11.2306 235.737 11.8176C235.173 12.4047 234.891 13.1679 234.891 14.1071C234.891 15.0632 235.173 15.8348 235.737 16.4218ZM249.936 0.646973C250.705 0.646973 251.338 0.881789 251.833 1.35143C252.328 1.80429 252.577 2.38295 252.577 3.08741C252.577 3.80864 252.328 4.40407 251.833 4.87371C251.338 5.32658 250.705 5.55301 249.936 5.55301C249.184 5.55301 248.551 5.31819 248.039 4.84855C247.543 4.37891 247.295 3.79187 247.295 3.08741C247.295 2.38295 247.543 1.80429 248.039 1.35143C248.551 0.881789 249.184 0.646973 249.936 0.646973ZM247.757 21.0259V7.18836H252.115V21.0259H247.757ZM256.564 8.9495C258 7.55739 259.743 6.86129 261.794 6.86129C263.845 6.86129 265.589 7.55739 267.025 8.9495C268.46 10.3249 269.178 12.0441 269.178 14.1071C269.178 16.187 268.469 17.9145 267.05 19.2899C265.632 20.6653 263.879 21.353 261.794 21.353C259.726 21.353 257.974 20.6653 256.539 19.2899C255.12 17.8978 254.411 16.1702 254.411 14.1071C254.411 12.0441 255.128 10.3249 256.564 8.9495ZM263.922 11.8176C263.358 11.2306 262.649 10.9371 261.794 10.9371C260.94 10.9371 260.23 11.2306 259.666 11.8176C259.102 12.4047 258.82 13.1679 258.82 14.1071C258.82 15.0632 259.102 15.8348 259.666 16.4218C260.23 16.9921 260.94 17.2772 261.794 17.2772C262.649 17.2772 263.358 16.9921 263.922 16.4218C264.486 15.8348 264.768 15.0632 264.768 14.1071C264.768 13.1679 264.486 12.4047 263.922 11.8176Z" fill="white"/>
<path d="M8.89204 16.8795L2.2133 5.78125C0.815429 7.87674 0 10.3602 0 13.0378C0 14.3572 0.194148 15.6765 0.582446 16.8795H8.89204Z" fill="#EE94FD"/>
<path d="M11.688 7.52832H24.7347C23.0651 3.95824 19.8034 1.2807 15.8816 0.388184L11.688 7.52832Z" fill="#EE94FD"/>
<path d="M7.49369 11.5251L14.2113 0.0776178C13.7841 0.0388089 13.357 0 12.9299 0C9.04689 0 5.5522 1.70741 3.18359 4.42375L7.49369 11.5251Z" fill="#EE94FD"/>
<path d="M10.2117 25.6106L14.3276 18.4316H1.12549C2.87283 22.1957 6.32867 24.9896 10.5223 25.8045L10.2117 25.6106Z" fill="#EE94FD"/>
<path d="M17.0469 9.08057L23.6091 20.4892C25.0847 18.3937 25.9777 15.7938 25.9777 13.0387C25.9777 11.6805 25.7448 10.3223 25.3565 9.08057H17.0469Z" fill="#EE94FD"/>
<path d="M18.3654 14.5527L11.8032 25.9613C12.1916 26.0001 12.541 26.0001 12.9293 26.0001C16.7346 26.0001 20.1516 24.3703 22.5203 21.7704L18.3654 14.5527Z" fill="#EE94FD"/>
</svg>
