<svg width="202" height="21" viewBox="0 0 202 21" fill="none" xmlns="http://www.w3.org/2000/svg">
<path d="M37.3247 16.1973L36.3722 13.4768H31.3813L30.4289 16.1973H27L31.8385 3.06383H35.9151L40.7536 16.1973H37.3247ZM32.4481 10.4373H35.3055L33.8768 6.34719L32.4481 10.4373ZM42.191 16.1973V1.75048H45.4294V16.1973H42.191ZM52.6592 5.63423C54.3736 5.63423 55.7451 6.22208 56.7738 7.39786C57.8025 8.56111 58.2343 9.99956 58.0691 11.7131H50.4304C50.5066 12.4636 50.7542 13.0327 51.1733 13.4205C51.6051 13.7957 52.1258 13.9833 52.7354 13.9833C53.1799 13.9833 53.5672 13.8833 53.8974 13.6832C54.2276 13.4705 54.4562 13.1828 54.5831 12.8201H57.9168C57.5739 14.0334 56.9263 14.9402 55.9737 15.5406C55.034 16.141 53.9545 16.4412 52.7354 16.4412C51.0845 16.4412 49.7383 15.9284 48.6969 14.9027C47.6556 13.877 47.1349 12.5887 47.1349 11.0377C47.1349 9.49921 47.6492 8.21716 48.6779 7.19148C49.7192 6.15333 51.0464 5.63423 52.6592 5.63423ZM52.6401 8.09206C51.5352 8.09206 50.8304 8.65492 50.5256 9.78064H54.6974C54.5831 9.26784 54.3482 8.8613 53.9926 8.56111C53.6497 8.24839 53.1989 8.09206 52.6401 8.09206ZM69.526 16.1973H65.678L63.8686 13.3642L62.1923 16.1973H58.3062L61.9447 10.8688L58.4967 5.87814H62.3447L63.9829 8.48606L65.4878 5.87814H69.3736L65.9066 10.9627L69.526 16.1973ZM77.4144 5.87814H80.6528L80.6338 16.1973H77.3954V15.0903C76.6463 15.9909 75.6619 16.4412 74.4427 16.4412C73.097 16.4412 71.9731 15.9346 71.071 14.9214C70.1696 13.9083 69.7185 12.6137 69.7185 11.0377C69.7185 9.46169 70.1696 8.16711 71.071 7.15396C71.9854 6.1408 73.1032 5.63423 74.4237 5.63423C75.6809 5.63423 76.6783 6.10328 77.4144 7.04138V5.87814ZM73.6236 12.7638C74.0427 13.1891 74.57 13.4017 75.2047 13.4017C75.8401 13.4017 76.3667 13.1891 76.7858 12.7638C77.2049 12.3261 77.4144 11.7507 77.4144 11.0377C77.4144 10.3373 77.2049 9.76811 76.7858 9.33036C76.3667 8.8926 75.8401 8.67368 75.2047 8.67368C74.57 8.67368 74.0427 8.8926 73.6236 9.33036C73.2045 9.76811 72.995 10.3373 72.995 11.0377C72.995 11.7507 73.2045 12.3261 73.6236 12.7638ZM88.8263 5.63423C90.0073 5.63423 90.9346 6.00324 91.6075 6.74119C92.2803 7.47914 92.6171 8.47983 92.6171 9.74312V16.1973H89.3787V10.4561C89.3787 9.85569 89.2583 9.41163 89.0168 9.12397C88.7753 8.82378 88.3439 8.67368 87.7214 8.67368C86.439 8.67368 85.7975 9.35535 85.7975 10.7187V16.1973H82.5591V5.87814H85.7975V7.04138C86.5724 6.10328 87.582 5.63423 88.8263 5.63423ZM102.123 1.75048H105.362V16.1973H102.123V15.0903C101.361 15.9909 100.371 16.4412 99.1517 16.4412C97.806 16.4412 96.6821 15.9346 95.78 14.9214C94.8785 13.9083 94.4275 12.6137 94.4275 11.0377C94.4275 9.46169 94.8785 8.16711 95.78 7.15396C96.6943 6.1408 97.8121 5.63423 99.1326 5.63423C100.39 5.63423 101.387 6.10328 102.123 7.04138V1.75048ZM98.3326 12.7638C98.7516 13.1891 99.2789 13.4017 99.9136 13.4017C100.549 13.4017 101.076 13.1891 101.495 12.7638C101.914 12.3261 102.123 11.7507 102.123 11.0377C102.123 10.3373 101.914 9.76811 101.495 9.33036C101.076 8.8926 100.549 8.67368 99.9136 8.67368C99.2789 8.67368 98.7516 8.8926 98.3326 9.33036C97.9135 9.76811 97.7039 10.3373 97.7039 11.0377C97.7039 11.7507 97.9135 12.3261 98.3326 12.7638ZM113.55 5.63423C113.791 5.63423 113.988 5.65299 114.141 5.69051V8.97388C113.861 8.94888 113.645 8.93635 113.493 8.93635C113.074 8.93635 112.699 8.97388 112.369 9.04892C112.051 9.12397 111.741 9.26154 111.436 9.46169C111.131 9.64931 110.896 9.93697 110.731 10.3247C110.579 10.7 110.502 11.169 110.502 11.7319V16.1973H107.264V5.87814H110.502V7.47291C111.137 6.24715 112.153 5.63423 113.55 5.63423ZM117.087 1C117.658 1 118.128 1.17511 118.496 1.52534C118.864 1.86305 119.049 2.29458 119.049 2.81992C119.049 3.35777 118.864 3.8018 118.496 4.15203C118.128 4.48974 117.658 4.6586 117.087 4.6586C116.528 4.6586 116.058 4.48349 115.677 4.13326C115.309 3.78304 115.124 3.34526 115.124 2.81992C115.124 2.29458 115.309 1.86305 115.677 1.52534C116.058 1.17511 116.528 1 117.087 1ZM115.467 16.1973V5.87814H118.706V16.1973H115.467ZM128.107 5.87814H131.346L131.327 16.1973H128.088V15.0903C127.339 15.9909 126.355 16.4412 125.136 16.4412C123.789 16.4412 122.665 15.9346 121.764 14.9214C120.862 13.9083 120.411 12.6137 120.411 11.0377C120.411 9.46169 120.862 8.16711 121.764 7.15396C122.678 6.1408 123.796 5.63423 125.117 5.63423C126.374 5.63423 127.37 6.10328 128.107 7.04138V5.87814ZM124.316 12.7638C124.736 13.1891 125.263 13.4017 125.898 13.4017C126.532 13.4017 127.06 13.1891 127.479 12.7638C127.898 12.3261 128.107 11.7507 128.107 11.0377C128.107 10.3373 127.898 9.76811 127.479 9.33036C127.06 8.8926 126.532 8.67368 125.898 8.67368C125.263 8.67368 124.736 8.8926 124.316 9.33036C123.897 9.76811 123.688 10.3373 123.688 11.0377C123.688 11.7507 123.897 12.3261 124.316 12.7638ZM144.201 7.9232C146.208 8.3485 147.624 8.85507 148.449 9.44293C149.287 10.0183 149.706 10.9439 149.706 12.2197C149.706 12.8326 149.592 13.3892 149.364 13.8895C149.148 14.3773 148.862 14.7776 148.506 15.0903C148.163 15.403 147.757 15.6657 147.287 15.8783C146.83 16.0909 146.373 16.2348 145.916 16.3098C145.471 16.3974 145.02 16.4412 144.563 16.4412C143.585 16.4412 142.722 16.3098 141.972 16.0472C141.223 15.7845 140.627 15.428 140.182 14.9777C139.737 14.5274 139.395 14.0459 139.153 13.5331C138.912 13.0202 138.753 12.4636 138.677 11.8632H141.953C142.119 12.4261 142.385 12.8326 142.753 13.0828C143.134 13.3329 143.732 13.458 144.544 13.458C145.814 13.458 146.449 13.089 146.449 12.351C146.449 12.0383 146.297 11.8195 145.992 11.6944C145.7 11.5568 145.09 11.3942 144.163 11.2066C144.062 11.194 143.979 11.1816 143.915 11.169C143.865 11.1565 143.789 11.1377 143.687 11.1128C143.598 11.0878 143.509 11.069 143.42 11.0565C142.785 10.9314 142.239 10.7876 141.782 10.6249C141.338 10.4623 140.887 10.2372 140.429 9.9495C139.972 9.64931 139.623 9.26154 139.382 8.78625C139.141 8.31097 139.02 7.74811 139.02 7.09767C139.02 6.18456 139.274 5.39655 139.782 4.73365C140.303 4.05822 140.944 3.5704 141.706 3.27021C142.468 2.97002 143.287 2.81992 144.163 2.81992C145.916 2.81992 147.224 3.22643 148.087 4.03945C148.963 4.85245 149.466 5.8969 149.592 7.17272H146.316C146.201 6.73496 145.986 6.39724 145.668 6.15957C145.363 5.92189 144.862 5.80309 144.163 5.80309C143.503 5.80309 143.02 5.91566 142.715 6.1408C142.423 6.35342 142.277 6.62239 142.277 6.94757C142.277 7.21024 142.391 7.39786 142.62 7.51043C142.862 7.62301 143.287 7.74181 143.896 7.86691C143.96 7.87944 144.011 7.89191 144.049 7.90444C144.1 7.90444 144.151 7.91067 144.201 7.9232ZM159.277 12.9702L159.83 15.5406C159.5 15.7657 159.024 15.9721 158.401 16.1597C157.779 16.3474 157.163 16.4412 156.553 16.4412C155.423 16.4412 154.471 16.0972 153.696 15.4093C152.934 14.7088 152.553 13.6394 152.553 12.2009V8.88007H150.762V5.87814H152.553V3.75802L155.791 3.06383V5.87814H159.315V8.88007H155.791V12.0133C155.791 12.989 156.236 13.4768 157.125 13.4768C157.481 13.4768 158.198 13.3079 159.277 12.9702ZM168.102 5.87814H171.34V16.1973H168.102V15.0153C167.327 15.9659 166.324 16.4412 165.092 16.4412C163.936 16.4412 163.022 16.0722 162.349 15.3342C161.688 14.5963 161.358 13.5956 161.358 12.3323V5.87814H164.597V11.6193C164.597 12.2197 164.711 12.67 164.94 12.9702C165.181 13.2579 165.606 13.4017 166.216 13.4017C167.473 13.4017 168.102 12.7201 168.102 11.3567V5.87814ZM180.944 1.75048H184.182V16.1973H180.944V15.0903C180.182 15.9909 179.191 16.4412 177.972 16.4412C176.626 16.4412 175.502 15.9346 174.6 14.9214C173.698 13.9083 173.248 12.6137 173.248 11.0377C173.248 9.46169 173.698 8.16711 174.6 7.15396C175.515 6.1408 176.632 5.63423 177.953 5.63423C179.21 5.63423 180.207 6.10328 180.944 7.04138V1.75048ZM177.153 12.7638C177.572 13.1891 178.099 13.4017 178.734 13.4017C179.369 13.4017 179.896 13.1891 180.315 12.7638C180.734 12.3261 180.944 11.7507 180.944 11.0377C180.944 10.3373 180.734 9.76811 180.315 9.33036C179.896 8.8926 179.369 8.67368 178.734 8.67368C178.099 8.67368 177.572 8.8926 177.153 9.33036C176.734 9.76811 176.524 10.3373 176.524 11.0377C176.524 11.7507 176.734 12.3261 177.153 12.7638ZM187.703 1C188.274 1 188.744 1.17511 189.113 1.52534C189.481 1.86305 189.665 2.29458 189.665 2.81992C189.665 3.35777 189.481 3.8018 189.113 4.15203C188.744 4.48974 188.274 4.6586 187.703 4.6586C187.144 4.6586 186.674 4.48349 186.293 4.13326C185.925 3.78304 185.741 3.34526 185.741 2.81992C185.741 2.29458 185.925 1.86305 186.293 1.52534C186.674 1.17511 187.144 1 187.703 1ZM186.084 16.1973V5.87814H189.322V16.1973H186.084ZM192.628 7.19148C193.695 6.15333 194.99 5.63423 196.514 5.63423C198.038 5.63423 199.333 6.15333 200.4 7.19148C201.467 8.21716 202 9.49921 202 11.0377C202 12.5887 201.473 13.877 200.419 14.9027C199.365 15.9284 198.063 16.4412 196.514 16.4412C194.977 16.4412 193.675 15.9284 192.609 14.9027C191.555 13.8645 191.028 12.5762 191.028 11.0377C191.028 9.49921 191.561 8.21716 192.628 7.19148ZM198.095 9.33036C197.676 8.8926 197.149 8.67368 196.514 8.67368C195.879 8.67368 195.352 8.8926 194.933 9.33036C194.514 9.76811 194.304 10.3373 194.304 11.0377C194.304 11.7507 194.514 12.3261 194.933 12.7638C195.352 13.1891 195.879 13.4017 196.514 13.4017C197.149 13.4017 197.676 13.1891 198.095 12.7638C198.514 12.3261 198.724 11.7507 198.724 11.0377C198.724 10.3373 198.514 9.76811 198.095 9.33036Z" fill="white"/>
<path d="M7.04208 13.3684L1.75283 4.5791C0.645782 6.23863 0 8.20544 0 10.3259C0 11.3708 0.153757 12.4157 0.46127 13.3684H7.04208Z" fill="#EE94FD"/>
<path d="M9.25635 5.96227H19.5888C18.2665 3.13493 15.6834 1.01445 12.5775 0.307617L9.25635 5.96227Z" fill="#EE94FD"/>
<path d="M5.93488 9.12731L11.2549 0.0614697C10.9166 0.0307349 10.5783 0 10.2401 0C7.16494 0 4.39731 1.35219 2.52148 3.50341L5.93488 9.12731Z" fill="#EE94FD"/>
<path d="M8.08744 20.283L11.3471 14.5977H0.891602C2.27541 17.5786 5.01228 19.7913 8.33342 20.4367L8.08744 20.283Z" fill="#EE94FD"/>
<path d="M13.5 7.19141L18.697 16.2265C19.8656 14.567 20.5728 12.508 20.5728 10.326C20.5728 9.25046 20.3883 8.17481 20.0808 7.19141H13.5Z" fill="#EE94FD"/>
<path d="M14.5446 11.5254L9.34766 20.5605C9.65522 20.5912 9.93192 20.5912 10.2395 20.5912C13.2531 20.5912 15.9592 19.3005 17.835 17.2415L14.5446 11.5254Z" fill="#EE94FD"/>
</svg>
