<svg width="13" height="13" viewBox="0 0 13 13" fill="none" xmlns="http://www.w3.org/2000/svg">
<path d="M11.9737 8.55948C11.1718 8.55948 10.3863 8.43427 9.64189 8.18863C9.27858 8.06342 8.866 8.15989 8.62722 8.40348L7.15137 9.51806C5.45795 8.61423 4.37416 7.53111 3.48265 5.85L4.56711 4.40906C4.84011 4.13606 4.93796 3.73647 4.82096 3.36221C4.57327 2.613 4.44738 1.82684 4.44738 1.02632C4.44738 0.460463 3.98692 0 3.42107 0H1.02632C0.460463 0 0 0.460463 0 1.02632C0 7.62826 5.37174 13 11.9737 13C12.5395 13 13 12.5395 13 11.9737V9.5858C13 9.01994 12.5395 8.55948 11.9737 8.55948Z" fill="#0D1011"/>
</svg>
