<?xml version="1.0" encoding="utf-8"?>
<!-- Generator: Adobe Illustrator 21.0.2, SVG Export Plug-In . SVG Version: 6.00 Build 0)  -->
<svg version="1.1" id="Слой_1" xmlns="http://www.w3.org/2000/svg" xmlns:xlink="http://www.w3.org/1999/xlink" x="0px" y="0px"
	 viewBox="0 0 62 62" style="enable-background:new 0 0 62 62;" xml:space="preserve">
<style type="text/css">
	.st0{fill:#F7C6FF;}
	.st1{fill:#FFFFFF;}
</style>
<circle class="st0" cx="31" cy="31" r="31"/>
<path class="st1" d="M41.8,29.1L31.4,18.7c-0.1-0.1-0.2-0.2-0.4-0.2c-0.1,0-0.3,0.1-0.4,0.2L20.2,29.1c-0.1,0.1-0.2,0.4-0.1,0.6
	c0.1,0.2,0.3,0.3,0.5,0.3h5.7v13c0,0.3,0.2,0.5,0.5,0.5h8.3c0.3,0,0.5-0.2,0.5-0.5V30h5.7c0.2,0,0.4-0.1,0.5-0.3
	C42,29.4,41.9,29.2,41.8,29.1z"/>
</svg>
