<svg width="62" height="62" viewBox="0 0 62 62" fill="none" xmlns="http://www.w3.org/2000/svg">
<circle cx="31" cy="31" r="31" fill="#F7C6FF"/>
<path fill-rule="evenodd" clip-rule="evenodd" d="M18.3432 28.2281C18.125 28.0692 18.0317 27.7893 18.1109 27.5312L18.2141 27.2086C18.2896 26.9536 18.5165 26.7731 18.7819 26.7569L27.0277 26.0987L30.1892 18.4976C30.2953 18.2314 30.5615 18.0643 30.8473 18.0847H31.1829C31.4524 18.079 31.6959 18.2448 31.7893 18.4976L34.9638 26.0987L43.2095 26.7569C43.4749 26.7731 43.7019 26.9536 43.7773 27.2086L43.8806 27.5312C43.9684 27.7811 43.8911 28.0593 43.687 28.2281L37.4672 33.5708L39.377 41.5848C39.4399 41.8414 39.3434 42.1107 39.1318 42.2688L38.7576 42.4753C38.5393 42.6228 38.2533 42.6228 38.035 42.4753L31.0151 38.2166L23.9565 42.514C23.7382 42.6616 23.4522 42.6616 23.2339 42.514L22.95 42.3204C22.7384 42.1623 22.6419 41.893 22.7048 41.6365L24.563 33.5708L18.3432 28.2281Z" fill="white"/>
</svg>
