<svg width="15" height="12" viewBox="0 0 15 12" fill="none" xmlns="http://www.w3.org/2000/svg">
<path d="M14.1496 2.24253C13.6608 2.45976 13.1344 2.60606 12.5824 2.67256C13.1466 2.33452 13.5777 1.8003 13.7828 1.16301C13.2552 1.47556 12.6711 1.70277 12.0493 1.82469C11.5528 1.29379 10.8423 0.962402 10.0588 0.962402C8.2965 0.962402 7.00197 2.60606 7.39986 4.31289C5.13332 4.19874 3.12169 3.11257 1.77618 1.46226C1.0613 2.68808 1.40599 4.29294 2.62073 5.10535C2.17407 5.09094 1.75401 4.96792 1.38604 4.76399C1.35612 6.02749 2.26273 7.21008 3.575 7.47386C3.19152 7.57804 2.77035 7.60243 2.34253 7.52041C2.68944 8.60436 3.69913 9.39239 4.8917 9.41455C3.74236 10.3145 2.2982 10.7168 0.849609 10.5462C2.05769 11.3209 3.49077 11.772 5.03135 11.772C10.0987 11.772 12.9604 7.4927 12.7875 3.65454C13.3217 3.27106 13.7839 2.79004 14.1496 2.24253Z" fill="white"/>
</svg>
