<svg width="56" height="56" viewBox="0 0 56 56" fill="none" xmlns="http://www.w3.org/2000/svg">
<circle cx="28" cy="28" r="28" fill="white"/>
<path d="M37 29C37.5523 29 38 28.5523 38 28C38 27.4477 37.5523 27 37 27L37 29ZM18.2929 27.2929C17.9024 27.6834 17.9024 28.3166 18.2929 28.7071L24.6569 35.0711C25.0474 35.4616 25.6805 35.4616 26.0711 35.0711C26.4616 34.6805 26.4616 34.0474 26.0711 33.6569L20.4142 28L26.0711 22.3431C26.4616 21.9526 26.4616 21.3195 26.0711 20.9289C25.6805 20.5384 25.0474 20.5384 24.6569 20.9289L18.2929 27.2929ZM37 27L19 27L19 29L37 29L37 27Z" fill="#1C1D21"/>
<path d="M37 29C37.5523 29 38 28.5523 38 28C38 27.4477 37.5523 27 37 27L37 29ZM18.2929 27.2929C17.9024 27.6834 17.9024 28.3166 18.2929 28.7071L24.6569 35.0711C25.0474 35.4616 25.6805 35.4616 26.0711 35.0711C26.4616 34.6805 26.4616 34.0474 26.0711 33.6569L20.4142 28L26.0711 22.3431C26.4616 21.9526 26.4616 21.3195 26.0711 20.9289C25.6805 20.5384 25.0474 20.5384 24.6569 20.9289L18.2929 27.2929ZM37 27L19 27L19 29L37 29L37 27Z" fill="#161616"/>
</svg>
