<svg width="56" height="56" viewBox="0 0 56 56" fill="none" xmlns="http://www.w3.org/2000/svg">
<circle r="28" transform="matrix(-1 0 0 1 28 28)" fill="white"/>
<path d="M19 29C18.4477 29 18 28.5523 18 28C18 27.4477 18.4477 27 19 27L19 29ZM37.7071 27.2929C38.0976 27.6834 38.0976 28.3166 37.7071 28.7071L31.3431 35.0711C30.9526 35.4616 30.3195 35.4616 29.9289 35.0711C29.5384 34.6805 29.5384 34.0474 29.9289 33.6569L35.5858 28L29.9289 22.3431C29.5384 21.9526 29.5384 21.3195 29.9289 20.9289C30.3195 20.5384 30.9526 20.5384 31.3431 20.9289L37.7071 27.2929ZM19 27L37 27L37 29L19 29L19 27Z" fill="#1C1D21"/>
<path d="M19 29C18.4477 29 18 28.5523 18 28C18 27.4477 18.4477 27 19 27L19 29ZM37.7071 27.2929C38.0976 27.6834 38.0976 28.3166 37.7071 28.7071L31.3431 35.0711C30.9526 35.4616 30.3195 35.4616 29.9289 35.0711C29.5384 34.6805 29.5384 34.0474 29.9289 33.6569L35.5858 28L29.9289 22.3431C29.5384 21.9526 29.5384 21.3195 29.9289 20.9289C30.3195 20.5384 30.9526 20.5384 31.3431 20.9289L37.7071 27.2929ZM19 27L37 27L37 29L19 29L19 27Z" fill="#161616"/>
</svg>
